<?xml version="1.0" encoding="UTF-8"?>
<svg id="Layer_1" xmlns="http://www.w3.org/2000/svg" version="1.1" viewBox="0 0 48 48">
  <!-- Generator: Adobe Illustrator 30.2.1, SVG Export Plug-In . SVG Version: 2.1.1 Build 1)  -->
  <defs>
    <style>
      .st0 {
        fill: #f47b20;
      }
    </style>
  </defs>
  <path class="st0" d="M24,47.8C10.88,47.8.2,37.12.2,24S10.88.2,24,.2s23.8,10.68,23.8,23.8-10.68,23.8-23.8,23.8ZM24,2.91C12.37,2.91,2.91,12.37,2.91,24s9.46,21.09,21.09,21.09,21.09-9.46,21.09-21.09S35.63,2.91,24,2.91Z"/>
  <path class="st0" d="M20.29,15.46v4.59h-5.29v6.03h5.29v14.57h6.52v-14.57h4.86l.92-6.03h-5.78v-3.91c0-1.65.81-3.26,3.4-3.19h2.63v-5.2s-2.39-.41-4.67-.41c-4.76,0-7.87,2.89-7.87,8.11Z"/>
</svg>