<?xml version="1.0" encoding="UTF-8"?>
<svg id="Layer_1" xmlns="http://www.w3.org/2000/svg" version="1.1" viewBox="0 0 48 48">
  <!-- Generator: Adobe Illustrator 30.2.1, SVG Export Plug-In . SVG Version: 2.1.1 Build 1)  -->
  <defs>
    <style>
      .st0 {
        fill: #f47b20;
      }
    </style>
  </defs>
  <path class="st0" d="M28.8,37.37h-9.59c-4.73,0-8.57-3.85-8.57-8.57v-9.59c0-4.73,3.84-8.57,8.57-8.57h9.59c4.73,0,8.57,3.85,8.57,8.57v9.59c0,4.73-3.84,8.57-8.57,8.57ZM19.2,13.34c-3.23,0-5.86,2.63-5.86,5.86v9.59c0,3.23,2.63,5.86,5.86,5.86h9.59c3.23,0,5.86-2.63,5.86-5.86v-9.59c0-3.23-2.63-5.86-5.86-5.86h-9.59Z"/>
  <path class="st0" d="M24,47.8C10.88,47.8.2,37.12.2,24S10.88.2,24,.2s23.8,10.68,23.8,23.8-10.68,23.8-23.8,23.8ZM24,2.91C12.37,2.91,2.91,12.37,2.91,24s9.46,21.09,21.09,21.09,21.09-9.46,21.09-21.09S35.63,2.91,24,2.91Z"/>
  <path class="st0" d="M24.1,31.27c-4.01,0-7.27-3.26-7.27-7.27s3.26-7.27,7.27-7.27,7.27,3.26,7.27,7.27-3.26,7.27-7.27,7.27ZM24.1,19.44c-2.52,0-4.56,2.05-4.56,4.56s2.05,4.56,4.56,4.56,4.56-2.05,4.56-4.56-2.05-4.56-4.56-4.56Z"/>
  <circle class="st0" cx="30.36" cy="17.67" r="1.4"/>
</svg>