<?xml version="1.0" encoding="UTF-8"?>
<svg id="Layer_1" xmlns="http://www.w3.org/2000/svg" version="1.1" viewBox="0 0 48 48">
  <!-- Generator: Adobe Illustrator 30.2.1, SVG Export Plug-In . SVG Version: 2.1.1 Build 1)  -->
  <defs>
    <style>
      .st0 {
        fill: #f47b20;
      }
    </style>
  </defs>
  <path class="st0" d="M24,47.8C10.88,47.8.2,37.12.2,24S10.88.2,24,.2s23.8,10.68,23.8,23.8-10.68,23.8-23.8,23.8ZM24,2.91C12.37,2.91,2.91,12.37,2.91,24s9.46,21.09,21.09,21.09,21.09-9.46,21.09-21.09S35.63,2.91,24,2.91Z"/>
  <g>
    <path class="st0" d="M12.71,18.73h4.85v15.56h-4.85v-15.56ZM15.13,11c1.55,0,2.8,1.26,2.8,2.8s-1.26,2.81-2.8,2.81-2.81-1.26-2.81-2.81,1.26-2.8,2.81-2.8"/>
    <path class="st0" d="M20.59,18.73h4.64v2.13h.06c.65-1.22,2.23-2.51,4.58-2.51,4.9,0,5.8,3.22,5.8,7.41v8.54h-4.83v-7.57c0-1.81-.04-4.13-2.51-4.13s-2.9,1.97-2.9,4v7.7h-4.84v-15.56Z"/>
  </g>
</svg>