<?xml version="1.0" encoding="UTF-8"?>
<svg id="Layer_1" xmlns="http://www.w3.org/2000/svg" version="1.1" viewBox="0 0 48 48">
  <!-- Generator: Adobe Illustrator 30.2.1, SVG Export Plug-In . SVG Version: 2.1.1 Build 1)  -->
  <defs>
    <style>
      .st0 {
        fill: #f47b20;
      }
    </style>
  </defs>
  <path class="st0" d="M24,47.73C10.91,47.73.27,37.09.27,24.01.26,10.92,10.91.27,24,.27h0c6.34,0,12.3,2.47,16.78,6.95,4.48,4.48,6.95,10.44,6.95,16.78,0,6.34-2.47,12.3-6.95,16.78-4.48,4.48-10.44,6.95-16.78,6.95h0ZM24,1.62v1.35c-11.59,0-21.03,9.44-21.03,21.03,0,5.62,2.19,10.9,6.16,14.87,3.97,3.97,9.25,6.16,14.87,6.16h0c5.62,0,10.9-2.19,14.87-6.16,3.97-3.97,6.16-9.25,6.16-14.87,0-11.59-9.44-21.03-21.03-21.03h0v-1.35Z"/>
  <path class="st0" d="M24.19,13.4c3.08.02,5.43,1.01,7,2.93.77.94,1.35,2.12,1.73,3.51l2.17-.58c-.46-1.7-1.19-3.16-2.18-4.38-2.01-2.46-4.93-3.72-8.7-3.75h-.02c-3.76.03-6.66,1.29-8.61,3.76-1.73,2.2-2.62,5.26-2.65,9.09h0v.03c.03,3.83.92,6.89,2.65,9.09,1.95,2.47,4.84,3.74,8.6,3.76h.02c3.34-.03,5.7-.9,7.65-2.84,2.55-2.54,2.47-5.72,1.62-7.68-.6-1.4-1.75-2.54-3.31-3.29-.11-.05-.22-.1-.34-.15h0,.01c-.2-3.67-2.2-5.76-5.56-5.79h-.04c-2.01,0-3.68.86-4.71,2.42l1.84,1.27c.77-1.16,1.97-1.41,2.86-1.41h.04c1.1,0,1.94.33,2.48.95.39.46.65,1.09.78,1.89-.98-.17-2.04-.21-3.17-.15-3.19.18-5.24,2.04-5.1,4.63.07,1.31.72,2.44,1.84,3.18.94.62,2.16.93,3.43.86,1.68-.09,2.98-.72,3.9-1.89.69-.88,1.13-2.03,1.32-3.47.79.48,1.38,1.11,1.71,1.87.55,1.29.58,3.42-1.15,5.14-1.52,1.52-3.34,2.17-6.1,2.19-3.06-.03-5.37-1.01-6.87-2.92-1.4-1.79-2.13-4.37-2.16-7.68.03-3.31.76-5.89,2.16-7.68,1.51-1.91,3.82-2.89,6.87-2.92ZM24.38,28.49c-1.4.08-2.86-.55-2.93-1.89h0c-.05-1,.71-2.12,3.01-2.25.26-.02.51-.02.77-.02.84,0,1.62.08,2.33.24-.26,3.31-1.82,3.85-3.19,3.92Z"/>
</svg>