<?xml version="1.0" encoding="UTF-8"?>
<svg id="Layer_1" xmlns="http://www.w3.org/2000/svg" version="1.1" viewBox="0 0 48 48">
  <!-- Generator: Adobe Illustrator 30.2.1, SVG Export Plug-In . SVG Version: 2.1.1 Build 1)  -->
  <defs>
    <style>
      .st0 {
        fill: #f47b20;
      }
    </style>
  </defs>
  <path class="st0" d="M24,47.8C10.88,47.8.2,37.12.2,24S10.88.2,24,.2s23.8,10.68,23.8,23.8-10.68,23.8-23.8,23.8ZM24,2.91C12.37,2.91,2.91,12.37,2.91,24s9.46,21.09,21.09,21.09,21.09-9.46,21.09-21.09S35.63,2.91,24,2.91Z"/>
  <path class="st0" d="M29.69,9.29h-4.21l-.04,20.53c0,2.52-2.22,4.5-4.74,4.5s-4.56-2.04-4.56-4.56,2.04-4.56,4.56-4.56c.19,0,.37.03.55.06v-4.4c-.18-.01-.37-.03-.55-.03-4.93,0-8.94,4-8.94,8.94s4,8.94,8.94,8.94,8.94-4,8.94-8.94v-12.09c1.45,2.22,3.92,3.55,6.57,3.55.24,0,.48-.01.72-.04h0v-4.89c-3.79-.28-6.83-3.23-7.23-7Z"/>
</svg>