<?xml version="1.0" encoding="UTF-8"?>
<svg id="Layer_1" xmlns="http://www.w3.org/2000/svg" version="1.1" viewBox="0 0 48 48">
  <!-- Generator: Adobe Illustrator 30.2.1, SVG Export Plug-In . SVG Version: 2.1.1 Build 1)  -->
  <defs>
    <style>
      .st0 {
        fill: none;
      }

      .st1 {
        fill: #f47b20;
      }
    </style>
  </defs>
  <path class="st1" d="M24,47.8C10.88,47.8.2,37.12.2,24S10.88.2,24,.2s23.8,10.68,23.8,23.8-10.68,23.8-23.8,23.8ZM24,2.91C12.37,2.91,2.91,12.37,2.91,24s9.46,21.09,21.09,21.09,21.09-9.46,21.09-21.09S35.63,2.91,24,2.91Z"/>
  <polygon class="st0" points="25.32 20.8 25.32 20.8 25 20.34 25.32 20.8"/>
  <path class="st1" d="M38.39,37.43h-10.32L9.61,10.57h10.32l18.46,26.86ZM29.49,34.73h3.76l-14.74-21.45h-3.76l14.74,21.45Z"/>
  <g>
    <polyline class="st1" points="26.25 22.15 26.25 22.15 35.05 11.92 32.96 11.92 25.32 20.8"/>
    <polygon class="st1" points="26.76 22.59 25.74 21.71 33.57 12.6 33.27 12.6 25.84 21.24 24.81 20.36 32.65 11.24 36.52 11.24 26.76 22.59"/>
  </g>
  <polygon class="st1" points="25 20.34 24.71 19.91 24.71 19.91 25 20.34"/>
  <g>
    <polyline class="st1" points="21.41 25.35 12.18 36.08 14.27 36.08 22.34 26.7"/>
    <polygon class="st1" points="14.58 36.75 10.71 36.75 20.9 24.91 21.92 25.79 13.66 35.4 13.96 35.4 21.82 26.26 22.85 27.14 14.58 36.75"/>
  </g>
</svg>