<?xml version="1.0" encoding="UTF-8"?>
<svg id="Layer_1" xmlns="http://www.w3.org/2000/svg" version="1.1" viewBox="0 0 48 48">
  <!-- Generator: Adobe Illustrator 30.2.1, SVG Export Plug-In . SVG Version: 2.1.1 Build 1)  -->
  <defs>
    <style>
      .st0 {
        fill: #fff;
      }

      .st1 {
        fill: #f47b20;
      }
    </style>
  </defs>
  <path class="st1" d="M24,47.8C10.88,47.8.2,37.12.2,24S10.88.2,24,.2s23.8,10.68,23.8,23.8-10.68,23.8-23.8,23.8ZM24,2.91C12.37,2.91,2.91,12.37,2.91,24s9.46,21.09,21.09,21.09,21.09-9.46,21.09-21.09S35.63,2.91,24,2.91Z"/>
  <rect class="st1" x="9.74" y="13.73" width="29.35" height="20.54" rx="6.44" ry="6.44"/>
  <path class="st0" d="M29.1,23.81l-7.07-3.85c-.29-.17-1.28.04-1.28.38v7.5c0,.33.98.54,1.27.38l7.39-3.65c.3-.16-.01-.59-.31-.76Z"/>
</svg>